<svg width="36" height="37" viewBox="0 0 36 37" fill="none" xmlns="http://www.w3.org/2000/svg">
<path id="Shape" fill-rule="evenodd" clip-rule="evenodd" d="M10.6199 15.1801L8.10005 17.6999L16.2 25.7999L34.2001 7.79993L31.6802 5.2801L16.2 20.6698L10.6199 15.1801ZM32.4 18.6C32.4 26.5198 25.9197 33 18 33C10.0803 33 3.6 26.5198 3.6 18.6C3.6 10.6801 10.0802 4.19998 18 4.19998C19.35 4.19998 20.7 4.38015 21.9603 4.74006L24.75 1.94998C22.6802 1.04998 20.4302 0.599976 18 0.599976C8.1 0.599976 0 8.69998 0 18.6C0 28.5 8.1 36.6 18 36.6C27.9 36.6 36 28.5 36 18.6H32.4Z" fill="#2E7D32"/>
</svg>
