<svg width="36" height="36" viewBox="0 0 36 36" fill="none" xmlns="http://www.w3.org/2000/svg">
<g id="Group">
<path id="Vector" d="M13.9428 27.8213C13.521 27.8213 13.179 27.4794 13.179 27.0575C13.179 26.6357 13.521 26.2937 13.9428 26.2937H20.0745C20.2852 26.2937 20.477 26.2075 20.615 26.0704C20.7522 25.9323 20.8383 25.7406 20.8383 25.5299V24.9538C20.8383 24.7431 20.7522 24.5513 20.615 24.4133C20.477 24.2761 20.2852 24.1899 20.0745 24.1899C18.846 24.1899 17.5611 24.106 16.273 24.0221C13.3121 23.829 10.3281 23.6346 7.77811 24.5148C7.38109 24.6515 6.94798 24.4403 6.81128 24.0433C6.67457 23.6463 6.88572 23.2132 7.28274 23.0765C10.1291 22.0938 13.2611 22.2982 16.3687 22.5008C17.6089 22.5816 18.8456 22.6623 20.0745 22.6623C20.7034 22.6623 21.276 22.9204 21.6906 23.3345C21.9893 23.6332 22.2063 24.0117 22.3055 24.4331L31.7389 20.7128C32.3254 20.4814 32.9525 20.388 33.5444 20.4489C34.1399 20.5103 34.7025 20.7268 35.165 21.113C35.4876 21.3833 35.5304 21.8647 35.2602 22.1872C34.9899 22.5098 34.5085 22.5527 34.186 22.2824C33.9671 22.1002 33.6897 21.9959 33.3892 21.9648C33.0409 21.9287 32.6601 21.9887 32.2938 22.1331L22.3001 26.074C22.1986 26.4859 21.9847 26.855 21.6937 27.146C21.276 27.5633 20.7034 27.8213 20.0745 27.8213H13.9428ZM7.94098 13.7428C7.51915 13.7428 7.17717 13.4009 7.17717 12.979C7.17717 12.5572 7.51915 12.2152 7.94098 12.2152H9.16499C9.58682 12.2152 9.9288 12.5572 9.9288 12.979C9.9288 13.4009 9.58682 13.7428 9.16499 13.7428H7.94098ZM9.19837 7.53124C8.83428 7.32235 8.70886 6.85676 8.91775 6.49267C9.12664 6.12858 9.59224 6.00316 9.95632 6.21205L11.0166 6.82382C11.3806 7.03271 11.5061 7.49831 11.2972 7.8624C11.0883 8.22648 10.6227 8.35191 10.2586 8.14302L9.19837 7.53124ZM13.3888 2.78277C13.1781 2.41868 13.3021 1.95173 13.6662 1.74103C14.0303 1.53034 14.4973 1.65441 14.708 2.0185L15.3202 3.07873C15.5309 3.44282 15.4068 3.90977 15.0427 4.12046C14.6786 4.33115 14.2117 4.20708 14.001 3.843L13.3888 2.78277ZM32.3718 12.2148C32.7937 12.2148 33.1357 12.5567 33.1357 12.9786C33.1357 13.4004 32.7937 13.7424 32.3718 13.7424H31.1478C30.726 13.7424 30.384 13.4004 30.384 12.9786C30.384 12.5567 30.726 12.2148 31.1478 12.2148H32.3718ZM30.3565 6.21159C30.7206 6.00271 31.1862 6.12813 31.3951 6.49222C31.604 6.8563 31.4785 7.3219 31.1145 7.53079L30.0542 8.14257C29.6901 8.35145 29.2245 8.22603 29.0156 7.86194C28.8068 7.49786 28.9322 7.03226 29.2963 6.82337L30.3565 6.21159ZM25.6044 2.0212C25.8133 1.65712 26.2789 1.53169 26.643 1.74058C27.0071 1.94947 27.1325 2.41507 26.9236 2.77916L26.3118 3.83939C26.1029 4.20347 25.6374 4.3289 25.2733 4.12001C24.9092 3.91112 24.7838 3.44552 24.9926 3.08143L25.6044 2.0212ZM19.3924 0.763817C19.3924 0.341981 19.7344 0 20.1562 0C20.578 0 20.92 0.341981 20.92 0.763817V1.98782C20.92 2.40965 20.578 2.75164 20.1562 2.75164C19.7344 2.75164 19.3924 2.40965 19.3924 1.98782V0.763817ZM19.3951 13.3607C19.3951 12.9407 19.7357 12.6 20.1557 12.6C20.5758 12.6 20.9164 12.9407 20.9164 13.3607L20.9168 18.6691H21.7113C21.9577 18.1087 22.3132 17.4992 22.7066 16.8234C23.7461 15.0395 25.0919 12.73 25.0919 10.0848C25.0919 8.72231 24.5392 7.48748 23.6464 6.59463C22.7535 5.70178 21.5191 5.14911 20.1562 5.14911C18.7937 5.14911 17.5588 5.70178 16.666 6.59463C15.7732 7.48748 15.2205 8.72231 15.2205 10.0848C15.2205 12.7295 16.5658 15.0395 17.6053 16.8234C17.9987 17.4992 18.3542 18.1087 18.6006 18.6691H19.3955L19.3951 13.3607ZM16.1869 18.6691H16.9024C16.7247 18.3402 16.5131 17.977 16.2861 17.5876C15.156 15.6476 13.6928 13.1365 13.6928 10.0848C13.6928 8.30093 14.4165 6.68396 15.5859 5.51455C16.7553 4.34514 18.3723 3.62148 20.1562 3.62148C21.9405 3.62148 23.557 4.34514 24.7265 5.51455C25.8959 6.68396 26.6195 8.30093 26.6195 10.0848C26.6195 13.1369 25.156 15.6476 24.0258 17.5876C23.7989 17.977 23.5873 18.3402 23.4095 18.6691H24.1251V20.1967H22.8844C22.8465 20.7647 22.5983 21.2795 22.2166 21.6616C21.7858 22.0925 21.2083 22.3375 20.5979 22.3375H19.714C19.1023 22.3375 18.5257 22.092 18.0939 21.6603C17.7131 21.2781 17.465 20.7643 17.4276 20.1967H16.1869V18.6691ZM21.3468 20.1967H18.9651C18.9949 20.3469 19.0689 20.4814 19.1722 20.5847C19.3121 20.7246 19.5034 20.8098 19.714 20.8098H20.5979C20.8086 20.8098 20.9999 20.7246 21.1366 20.5879C21.2421 20.4823 21.3166 20.3474 21.3468 20.1967ZM0.963768 22.8572H2.62179C3.45914 22.8572 4.22296 23.2005 4.77699 23.7541C5.35132 24.3284 5.67705 25.099 5.67705 25.9125V32.9303C7.91391 32.1259 10.1273 32.1453 12.4919 32.166C16.2108 32.1985 20.3348 32.2342 25.4181 28.7494L34.8591 23.2939C35.2232 23.0832 35.6901 23.2073 35.9008 23.5714C36.1115 23.9355 35.9874 24.4024 35.6234 24.6131L26.2676 30.0149C20.8004 33.7595 16.4255 33.7221 12.4801 33.6873C10.0005 33.6657 7.70006 33.6458 5.46726 34.6628C5.35312 34.9104 5.19521 35.1342 5.00482 35.3246C4.58705 35.7419 4.01452 36 3.3856 36H0.963768C0.541932 36 0.199951 35.658 0.199951 35.2362V23.621C0.199951 23.1992 0.541932 22.8572 0.963768 22.8572ZM2.62179 24.3848H1.72758V34.4724H3.3856C3.5963 34.4724 3.78804 34.3862 3.9261 34.249C4.06325 34.111 4.14942 33.9192 4.14942 33.7085V25.9125C4.14942 25.4911 3.97798 25.109 3.70322 24.8342C3.42531 24.5563 3.04317 24.3848 2.62179 24.3848Z" fill="#2E7D32"/>
</g>
</svg>
