<svg width="37" height="36" viewBox="0 0 37 36" fill="none" xmlns="http://www.w3.org/2000/svg">
<g id="android-bulb">
<g id="Icon_26_">
<path id="Shape" fill-rule="evenodd" clip-rule="evenodd" d="M18.6 11.1002C20.649 11.1002 22.583 11.9058 24.0458 13.3686C25.5087 14.8314 26.3142 16.7655 26.3142 18.8145C26.3142 20.2305 25.9589 21.5491 25.258 22.7338C24.5879 23.8666 23.6158 24.8259 22.4467 25.5082L21.1714 26.2524V27.7291V33.4286H16.0285V27.7291V26.2524L14.7532 25.5082C12.3676 24.1161 10.8857 21.5511 10.8857 18.8145C10.8857 16.7655 11.6912 14.8314 13.1541 13.3686C14.6169 11.9058 16.5509 11.1002 18.6 11.1002ZM20.3143 0C19.8004 0 16.8858 0 16.8858 0V5.14286H20.3143V0ZM30.6854 4.32847L27.6 7.41474L29.9998 9.81461L33.086 6.72922L30.6854 4.32847ZM6.51481 4.32847L4.11414 6.72914L7.20033 9.81453L9.6002 7.41474L6.51481 4.32847ZM18.6 8.52883C12.9432 8.52883 8.31428 13.1577 8.31428 18.8145C8.31428 22.5864 10.3717 25.9286 13.4571 27.7292V36H23.7429V27.7291C26.8282 25.9286 28.8857 22.6716 28.8857 18.8145C28.8857 13.1576 24.2568 8.52883 18.6 8.52883ZM36.5999 17.1002H31.4571V20.5288H36.5999V17.1002ZM5.74283 17.1002H0.599976V20.5288H5.74283V17.1002Z" fill="#2E7D32"/>
</g>
</g>
</svg>
