<svg width="37" height="36" viewBox="0 0 37 36" fill="none" xmlns="http://www.w3.org/2000/svg">
<path id="Vector" fill-rule="evenodd" clip-rule="evenodd" d="M15.5393 0.0266623L23.4847 0C24.9215 0 25.8991 0.254773 26.8411 1.48124L29.0837 5.48651L31.3589 4.08229L27.4396 10.9404L19.5179 10.9108L21.9294 9.50658L17.8589 2.59809C17.5331 1.9731 17.1202 1.39757 16.6324 0.888743C16.2992 0.563931 15.9328 0.274988 15.5393 0.0266623ZM17.456 33.2567H9.83357C8.14792 32.9961 7.06662 32.0718 6.74371 30.8097C6.4682 29.7107 6.74371 29.2041 7.2177 28.2591C7.78946 27.1304 8.46194 26.0402 9.10776 24.9411L17.5479 24.9707L17.456 33.2419V33.2567ZM5.30987 30.2943L1.31942 23.4213C0.599534 22.1801 0.329949 21.2024 0.931332 19.7656L3.28057 15.8196L0.928369 14.5546L8.81448 14.5161L12.7457 21.4009L10.3194 20.0056L6.38229 26.9941C5.99523 27.5889 5.69591 28.2365 5.49354 28.9167C5.38215 29.366 5.31859 29.8257 5.30394 30.2883L5.30987 30.2943ZM32.8342 12.3417L36.6588 18.9332C37.2809 20.5181 37.038 21.9223 36.09 22.8259C35.2783 23.6169 34.7006 23.6346 33.643 23.6939C32.381 23.762 31.1012 23.7235 29.8244 23.7146L25.6295 16.3914L32.8402 12.3357L32.8342 12.3417ZM36.3329 24.3397L32.3839 31.2334C31.67 32.4806 30.956 33.2005 29.4215 33.396L24.8296 33.3338L24.9096 36L20.9399 29.1863L24.9244 22.3371V25.1366L32.9468 25.0566C33.6539 25.0903 34.3623 25.0225 35.0502 24.8552C35.4949 24.727 35.9249 24.5522 36.3329 24.3338V24.3397ZM6.89776 9.05629L10.6956 2.44997C11.7621 1.11685 13.0953 0.639895 14.3573 0.995392C15.4475 1.30645 15.7526 1.79526 16.3332 2.68104C17.0235 3.73864 17.6308 4.86735 18.2618 5.97828L14.0136 13.2719L6.90368 9.05629H6.89776Z" fill="#2E7D32"/>
</svg>
