<svg width="36" height="37" viewBox="0 0 36 37" fill="none" xmlns="http://www.w3.org/2000/svg">
<g id="Group">
<path id="Vector" d="M26.8774 30.6401C24.689 32.2133 22.4068 33.2416 20.0221 33.6371C18.6481 33.8626 17.2595 33.8773 15.8532 33.6634V35.8636C15.8562 36.5843 15.2468 36.8362 14.614 36.347C14.3738 36.1624 14.1013 35.846 13.8816 35.6233L9.21765 30.8979C8.68739 30.2797 8.83973 29.6411 9.5985 28.9878L14.321 24.2301C14.9304 23.5416 15.8239 23.6295 15.8825 24.6109L15.9118 26.9312C16.9577 27.2271 17.9714 27.2827 18.9528 27.1187C20.2975 26.896 21.651 26.2661 23.0162 25.2847L26.8774 30.6401ZM33.1116 20.7467H35.2649C35.9856 20.7438 36.2375 21.3532 35.7483 21.986C35.5637 22.2262 35.2473 22.4986 35.0247 22.7184L30.2992 27.3823C29.681 27.9126 29.0424 27.7602 28.3891 27.0015L23.6314 22.276C22.9429 21.6666 23.0308 20.7731 24.0122 20.7145L26.3852 20.6823C26.6694 19.654 26.7192 18.6579 26.5581 17.6911C26.3354 16.3464 25.7055 14.99 24.7241 13.6278L30.0765 9.77531C31.6497 11.9637 32.678 14.2459 33.0735 16.6306C33.302 17.99 33.3167 19.361 33.1116 20.7467ZM20.1481 3.53523V1.33508C20.1451 0.614396 20.7545 0.365378 21.3873 0.851695C21.6275 1.03626 21.9 1.35266 22.1197 1.57531L26.7836 6.30079C27.3139 6.91894 27.1616 7.55759 26.4028 8.2109L21.6773 12.9686C21.068 13.6571 20.1744 13.5692 20.1158 12.5877L20.0865 10.2558C19.0729 9.98332 18.0885 9.93351 17.1364 10.0917C15.7917 10.3144 14.4353 10.9442 13.073 11.9257L9.21472 6.57324C11.4031 5.00004 13.6853 3.97174 16.07 3.57624C17.4177 3.35359 18.7741 3.33308 20.1481 3.53523ZM6.01265 27.4351C4.43944 25.2466 3.41115 22.9645 3.01565 20.5797C2.79007 19.2175 2.77542 17.8435 2.98342 16.4519H0.736405C0.0157191 16.4548 -0.236228 15.8455 0.253018 15.2127C0.437584 14.9725 0.753983 14.7 0.976634 14.4803L5.70211 9.81633C6.32026 9.28607 6.95892 9.43841 7.61222 10.1972L12.3699 14.9197C13.0584 15.5291 12.9705 16.4226 11.9891 16.4812L9.70983 16.5105C9.42272 17.5417 9.37292 18.5437 9.53112 19.5134C9.75377 20.8581 10.3836 22.2145 11.3651 23.5767L6.01265 27.4351Z" fill="#2E7D32"/>
</g>
</svg>
