<svg width="38" height="37" viewBox="0 0 38 37" fill="none" xmlns="http://www.w3.org/2000/svg">
<g id="Group">
<path id="Vector" fill-rule="evenodd" clip-rule="evenodd" d="M22.2566 32.3429H15.8281V34.2714C15.8281 34.7832 16.0313 35.2736 16.3932 35.6349C16.7545 35.9968 17.245 36.2 17.7567 36.2H20.3281C20.8398 36.2 21.3303 35.9968 21.6916 35.6349C22.0535 35.2736 22.2566 34.7832 22.2566 34.2714V32.3429Z" fill="#2E7D32"/>
<path id="Vector_2" fill-rule="evenodd" clip-rule="evenodd" d="M20.971 31.0573H22.2612C22.2657 30.6844 22.2747 30.1888 22.2921 29.6874C22.2921 28.0552 23.1824 26.5541 24.6128 25.7718C28.1883 23.8021 30.6138 19.9964 30.6138 15.6289C30.6138 9.2422 25.4292 4.05762 19.0425 4.05762C12.6558 4.05762 7.47119 9.2422 7.47119 15.6289C7.47119 19.9945 9.89409 23.7989 13.4844 25.739L13.487 25.7403C14.9302 26.5297 15.8282 28.0436 15.8282 29.688V31.0573H17.1139C17.1146 24.9412 17.0966 22.465 15.7517 20.1288H14.5425C14.1877 20.1288 13.8997 19.8408 13.8997 19.486C13.8997 19.1311 14.1877 18.8431 14.5425 18.8431H14.8755C14.8138 18.7647 14.7508 18.6856 14.6859 18.6059C14.4628 18.3295 14.5046 17.9245 14.7804 17.7008C15.0562 17.4777 15.4612 17.5195 15.6849 17.7953C15.9754 18.154 16.2352 18.4999 16.4672 18.8431H21.6177C21.8498 18.4999 22.1095 18.154 22.4001 17.7953C22.6238 17.5195 23.0288 17.4777 23.3046 17.7008C23.5804 17.9245 23.6221 18.3295 23.3991 18.6059C23.3341 18.6856 23.2711 18.7647 23.2094 18.8431H23.5424C23.8973 18.8431 24.1853 19.1311 24.1853 19.486C24.1853 19.8408 23.8973 20.1288 23.5424 20.1288H22.3332C20.9884 22.465 20.9704 24.9412 20.971 31.0573Z" fill="#2E7D32"/>
<path id="Vector_3" fill-rule="evenodd" clip-rule="evenodd" d="M18.3995 31.0572H19.6852C19.6897 25.143 19.7739 22.4321 20.8751 20.1288H17.2096C18.3108 22.4321 18.395 25.143 18.3995 31.0572Z" fill="#2E7D32"/>
<path id="Vector_4" fill-rule="evenodd" clip-rule="evenodd" d="M36.3993 4.59241L32.3017 8.69057C32.1603 8.832 31.961 8.8995 31.763 8.87314C31.565 8.84742 31.3902 8.73043 31.2905 8.5575C27.3872 1.7973 18.7305 -0.522101 11.971 3.38064C5.21143 7.28337 2.89139 15.94 6.79412 22.7002C6.94005 22.9522 6.89826 23.2704 6.69255 23.4761L1.49705 28.671C1.24634 28.9217 0.838769 28.9217 0.588058 28.671C0.337347 28.4203 0.337347 28.0127 0.588058 27.762L5.44028 22.9097C1.5234 15.6031 4.09737 6.44188 11.3281 2.26722C18.4605 -1.85087 27.5292 0.381745 31.9687 7.20495L35.4903 3.68342H35.2241C34.8693 3.68342 34.5813 3.39542 34.5813 3.04057C34.5813 2.68572 34.8693 2.39772 35.2241 2.39772H37.0421C37.2131 2.39772 37.3757 2.46522 37.4966 2.58607C37.6175 2.70693 37.685 2.86957 37.685 3.04057V4.85919C37.685 5.21404 37.397 5.50204 37.0421 5.50204C36.6872 5.50204 36.3993 5.21404 36.3993 4.85919V4.59241Z" fill="#2E7D32"/>
</g>
</svg>
