<svg width="35" height="36" viewBox="0 0 35 36" fill="none" xmlns="http://www.w3.org/2000/svg">
<g id="Layer 35">
<path id="Vector" d="M17.459 24.8527C19.6419 24.8527 21.7758 24.2054 23.5908 22.9927C25.4058 21.7799 26.8204 20.0562 27.6558 18.0395C28.4911 16.0227 28.7097 13.8036 28.2838 11.6626C27.858 9.52169 26.8068 7.55511 25.2633 6.01157C23.7197 4.46803 21.7532 3.41687 19.6122 2.99101C17.4713 2.56515 15.2521 2.78371 13.2354 3.61907C11.2186 4.45443 9.49492 5.86905 8.28217 7.68406C7.06942 9.49907 6.42212 11.6329 6.42212 13.8158C6.42546 16.742 7.58935 19.5473 9.65844 21.6164C11.7275 23.6855 14.5329 24.8494 17.459 24.8527ZM17.459 4.15855C19.369 4.15855 21.2362 4.72494 22.8243 5.78609C24.4124 6.84725 25.6502 8.35551 26.3812 10.1201C27.1121 11.8848 27.3034 13.8265 26.9307 15.6999C26.5581 17.5732 25.6383 19.294 24.2877 20.6446C22.9372 21.9952 21.2164 22.9149 19.3431 23.2876C17.4697 23.6602 15.528 23.4689 13.7633 22.738C11.9987 22.0071 10.4904 20.7693 9.42928 19.1811C8.36812 17.593 7.80173 15.7259 7.80173 13.8158C7.80462 11.2554 8.823 8.80075 10.6335 6.99029C12.4439 5.17982 14.8986 4.16143 17.459 4.15855Z" fill="#2E7D32"/>
<path id="Vector_2" d="M34.7159 27.1243L28.9787 21.387C30.3492 19.3072 31.131 16.8951 31.2412 14.4067C31.3515 11.9183 30.786 9.44655 29.6048 7.25364C28.4236 5.06074 26.6707 3.22852 24.5323 1.95142C22.3938 0.674327 19.9494 0 17.4586 0C14.9678 0 12.5235 0.674327 10.385 1.95142C8.24654 3.22852 6.49369 5.06074 5.31249 7.25364C4.13129 9.44655 3.5658 11.9183 3.67603 14.4067C3.78627 16.8951 4.56811 19.3072 5.9386 21.387L0.201966 27.1243C0.105521 27.2207 0.0398452 27.3437 0.0132433 27.4774C-0.0133586 27.6112 0.000307478 27.7499 0.0525137 27.876C0.10472 28.002 0.193122 28.1097 0.306544 28.1855C0.419965 28.2613 0.553313 28.3018 0.689728 28.3018H7.80163V35.3102C7.80171 35.4466 7.84218 35.5799 7.91796 35.6933C7.99373 35.8067 8.1014 35.8952 8.22738 35.9474C8.35344 35.9997 8.49217 36.0134 8.62601 35.9867C8.75985 35.9601 8.88278 35.8944 8.97926 35.7979L17.1859 27.5982C17.2776 27.6 17.3668 27.612 17.4589 27.612C17.551 27.612 17.6402 27.6 17.7319 27.5982L25.9387 35.798C26.0352 35.8945 26.1581 35.9602 26.2919 35.9868C26.4257 36.0134 26.5644 35.9997 26.6904 35.9475C26.8164 35.8953 26.9242 35.8068 27 35.6934C27.0757 35.58 27.1162 35.4466 27.1162 35.3102V28.3018H34.2281C34.3645 28.3017 34.4978 28.2613 34.6113 28.1855C34.7247 28.1097 34.8131 28.002 34.8653 27.8759C34.9175 27.7499 34.9311 27.6112 34.9045 27.4774C34.8779 27.3436 34.8123 27.2207 34.7159 27.1243ZM17.4589 1.39933C19.9147 1.39933 22.3153 2.12755 24.3572 3.49189C26.399 4.85624 27.9905 6.79543 28.9303 9.06425C29.87 11.3331 30.1159 13.8296 29.6368 16.2382C29.1577 18.6468 27.9752 20.8592 26.2387 22.5956C24.5022 24.3321 22.2898 25.5147 19.8813 25.9938C17.4727 26.4729 14.9761 26.227 12.7073 25.2872C10.4385 24.3474 8.49931 22.756 7.13496 20.7141C5.77062 18.6722 5.0424 16.2716 5.0424 13.8158C5.04616 10.5239 6.35554 7.36793 8.68327 5.0402C11.011 2.71247 14.167 1.4031 17.4589 1.39933ZM9.18124 33.6458V27.612C9.18124 27.429 9.10857 27.2536 8.9792 27.1242C8.84984 26.9948 8.67438 26.9222 8.49143 26.9222H2.35492L6.76278 22.514C8.92699 25.1715 12.0035 26.9276 15.3923 27.4399L9.18124 33.6458ZM26.4264 26.9222C26.2434 26.9222 26.068 26.9948 25.9386 27.1242C25.8093 27.2536 25.7366 27.429 25.7366 27.612V33.6458L19.5252 27.4399C22.914 26.9276 25.9905 25.1715 28.1547 22.514L32.5629 26.9222H26.4264Z" fill="#2E7D32"/>
<path id="Vector_3" d="M16.2813 18.0975C16.4107 18.2269 16.5861 18.2996 16.769 18.2996C16.7941 18.2996 16.8192 18.2983 16.8442 18.2956C16.9469 18.2843 17.0457 18.2501 17.1335 18.1956C17.2212 18.141 17.2956 18.0675 17.3511 17.9803L22.1797 10.3925C22.278 10.2381 22.3109 10.051 22.2712 9.8724C22.2316 9.69377 22.1226 9.53821 21.9682 9.43995C21.8138 9.34169 21.6268 9.30877 21.4481 9.34844C21.2695 9.38811 21.1139 9.49712 21.0157 9.65148L16.6488 16.5138L13.8077 13.6731C13.6776 13.5475 13.5033 13.4779 13.3225 13.4795C13.1416 13.4811 12.9686 13.5536 12.8407 13.6815C12.7128 13.8094 12.6403 13.9824 12.6387 14.1633C12.6371 14.3442 12.7067 14.5184 12.8323 14.6485L16.2813 18.0975Z" fill="#2E7D32"/>
</g>
</svg>
