<svg width="39" height="37" viewBox="0 0 39 37" fill="none" xmlns="http://www.w3.org/2000/svg">
<g id="Group 11">
<path id="Vector" d="M27.9483 12.0558C26.9492 12.0558 26.136 12.869 26.136 13.8682V17.402C26.136 18.4012 26.9492 19.2143 27.9483 19.2143C28.9475 19.2143 29.7606 18.4012 29.7606 17.402V13.8682C29.7606 12.869 28.9475 12.0558 27.9483 12.0558Z" fill="#2E7D32"/>
<path id="Vector_2" d="M16.2482 16.7143V11.5411C16.2482 10.542 15.435 9.72882 14.4359 9.72882C13.4367 9.72882 12.6235 10.542 12.6235 11.5411V16.0222C12.749 16.0309 12.8744 16.0439 12.9998 16.0698L16.2439 16.7143H16.2482Z" fill="#2E7D32"/>
<path id="Vector_3" d="M25.6991 18.877C25.219 19.6123 24.3885 20.0967 23.4456 20.0967C22.6497 20.0967 21.9317 19.7507 21.4386 19.197C21.4256 19.2965 21.3997 19.396 21.3694 19.4912C20.872 20.9012 19.5311 21.8571 18.0345 21.8615H17.8183C17.8399 21.8744 17.8615 21.8874 17.8831 21.9004C19.0986 22.6184 20.5519 24.0415 20.5519 26.7232C20.5519 26.9654 20.3529 27.1644 20.1107 27.1644C19.8685 27.1644 19.6695 26.9654 19.6695 26.7232C19.6695 24.9152 18.9256 23.5527 17.4593 22.6746C16.3303 21.9999 15.1711 21.8701 15.1625 21.8701C14.9289 21.8442 14.7559 21.6452 14.7689 21.4073C14.7819 21.1737 14.9722 20.9877 15.2057 20.9877L18.0302 20.9791C19.1548 20.9791 20.1626 20.2611 20.5389 19.197C20.5995 19.0197 20.5822 18.838 20.4913 18.6737C20.4005 18.5136 20.2491 18.4055 20.0675 18.3666L12.8311 16.9306C11.9228 16.7489 11.0188 17.2463 10.6814 18.1071L9.43138 21.2992C8.86043 22.7568 9.0421 24.3961 9.92015 25.6937L13.7178 31.2951C14.159 31.9439 14.3926 32.7052 14.3926 33.488V36.2001H26.8886V32.9517C26.8886 32.8738 26.9102 32.8003 26.9491 32.7311L28.1516 30.6463C29.2026 28.821 29.7606 26.7405 29.7606 24.6297V19.3874C29.2805 19.8242 28.6447 20.0881 27.9483 20.0881C27.0053 20.0881 26.1792 19.6036 25.6948 18.8683L25.6991 18.877Z" fill="#2E7D32"/>
<path id="Vector_4" d="M20.7292 17.7004C20.7465 17.6052 20.7551 17.5058 20.7551 17.4063V12.151C20.7551 11.1518 19.942 10.3386 18.9428 10.3386C17.9437 10.3386 17.1305 11.1518 17.1305 12.151V16.8959L20.2361 17.5144C20.4134 17.549 20.5778 17.6139 20.7292 17.7047V17.7004Z" fill="#2E7D32"/>
<path id="Vector_5" d="M23.4456 19.2143C24.4448 19.2143 25.258 18.4012 25.258 17.402V13.1242C25.258 12.1251 24.4448 11.3119 23.4456 11.3119C22.4465 11.3119 21.6333 12.1251 21.6333 13.1242V17.402C21.6333 18.4012 22.4465 19.2143 23.4456 19.2143Z" fill="#2E7D32"/>
<path id="Vector_6" d="M19.4317 4.16637C19.6739 4.16637 19.8729 3.96741 19.8729 3.72518V0.641199C19.8729 0.398979 19.6739 0.200012 19.4317 0.200012C19.1894 0.200012 18.9905 0.398979 18.9905 0.641199V3.72518C18.9905 3.96741 19.1894 4.16637 19.4317 4.16637Z" fill="#2E7D32"/>
<path id="Vector_7" d="M3.9252 22.5275H0.841212C0.598991 22.5275 0.400024 22.7265 0.400024 22.9687C0.400024 23.2109 0.598991 23.4099 0.841212 23.4099H3.9252C4.16742 23.4099 4.36638 23.2109 4.36638 22.9687C4.36638 22.7265 4.16742 22.5275 3.9252 22.5275Z" fill="#2E7D32"/>
<path id="Vector_8" d="M10.8892 7.11192C10.9801 7.11192 11.0709 7.08164 11.1531 7.02541C11.3477 6.87835 11.391 6.60585 11.2439 6.40689L9.40562 3.92845C9.25856 3.73381 8.98606 3.69056 8.78709 3.83762C8.59245 3.98468 8.5492 4.25718 8.69626 4.45615L10.5345 6.93458C10.621 7.05137 10.7551 7.11192 10.8892 7.11192Z" fill="#2E7D32"/>
<path id="Vector_9" d="M5.44343 13.6691L2.52814 12.6613C2.29889 12.5835 2.04802 12.7046 1.96584 12.9338C1.88798 13.1631 2.00909 13.4139 2.23834 13.4961L5.15363 14.5039C5.20121 14.5212 5.24879 14.5299 5.29637 14.5299C5.47804 14.5299 5.65105 14.4174 5.71161 14.2314C5.78946 14.0022 5.66835 13.7513 5.43911 13.6691H5.44343Z" fill="#2E7D32"/>
<path id="Vector_10" d="M38.0221 22.5275H34.9381C34.6959 22.5275 34.4969 22.7265 34.4969 22.9687C34.4969 23.2109 34.6959 23.4099 34.9381 23.4099H38.0221C38.2643 23.4099 38.4633 23.2109 38.4633 22.9687C38.4633 22.7265 38.2643 22.5275 38.0221 22.5275Z" fill="#2E7D32"/>
<path id="Vector_11" d="M30.0764 3.83762C29.8818 3.69056 29.6049 3.73381 29.4579 3.92845L27.6196 6.40689C27.4725 6.60153 27.5158 6.87835 27.7104 7.02541C27.7883 7.08597 27.8834 7.11192 27.9743 7.11192C28.1084 7.11192 28.2425 7.05137 28.329 6.93458L30.1672 4.45615C30.3143 4.2615 30.2711 3.98468 30.0764 3.83762Z" fill="#2E7D32"/>
<path id="Vector_12" d="M36.8974 12.9338C36.8196 12.7046 36.5687 12.5835 36.3352 12.6613L33.4199 13.6691C33.1906 13.747 33.0695 13.9979 33.1474 14.2314C33.2122 14.4131 33.3809 14.5299 33.5626 14.5299C33.6102 14.5299 33.6578 14.5212 33.7053 14.5039L36.6206 13.4961C36.8499 13.4183 36.971 13.1674 36.8931 12.9338H36.8974Z" fill="#2E7D32"/>
</g>
</svg>
