<svg width="37" height="36" viewBox="0 0 37 36" fill="none" xmlns="http://www.w3.org/2000/svg">
<g id="android-locate">
<g id="Icon">
<path id="Shape" fill-rule="evenodd" clip-rule="evenodd" d="M18.1998 11.5713C14.6638 11.5713 11.7712 14.4642 11.7712 17.9999C11.7712 21.5359 14.6638 24.4285 18.1998 24.4285C21.7359 24.4285 24.6283 21.5359 24.6283 17.9999C24.6283 14.4642 21.7359 11.5713 18.1998 11.5713ZM33.5432 16.2857C32.7714 9.17164 27.0283 3.4286 19.9142 2.65725V0H16.4857V2.65717C9.37159 3.42852 3.62855 9.17156 2.8568 16.2857H0.199951V19.7143H2.85672C3.62847 26.8284 9.37143 32.5714 16.4856 33.3432V36H19.9141V33.3432C27.0282 32.5715 32.7713 26.8284 33.5431 19.7143H36.2V16.2857H33.5432ZM18.1998 30C11.5995 30 6.19978 24.6002 6.19978 18C6.19978 11.3998 11.5995 6.00007 18.1998 6.00007C24.8 6.00007 30.1997 11.3999 30.1997 18C30.1997 24.6002 24.8 30 18.1998 30Z" fill="#2E7D32"/>
</g>
</g>
</svg>
