<svg width="51" height="36" viewBox="0 0 51 36" fill="none" xmlns="http://www.w3.org/2000/svg">
<g id="speedometer">
<g id="Group">
<path id="Shape" fill-rule="evenodd" clip-rule="evenodd" d="M35.2999 18L25.8049 25.2225C25.6699 25.2112 25.5349 25.2 25.3999 25.2C23.4087 25.2 21.7999 26.8087 21.7999 28.8C21.7999 30.7912 23.4087 32.4 25.3999 32.4C27.3912 32.4 28.9999 30.7912 28.9999 28.8C28.9999 28.665 28.9887 28.53 28.9774 28.395L36.1999 18.9L35.2999 18Z" fill="#2E7D32"/>
<path id="Shape_2" fill-rule="evenodd" clip-rule="evenodd" d="M25.3999 0C11.4837 0 0.199951 11.2838 0.199951 25.2C0.199951 29.07 1.07745 32.7262 2.62995 36H6.6912C4.9587 33.0075 3.9687 29.6325 3.82245 26.1H7.39995V24.3H3.82245C3.95745 21.06 4.8012 17.9438 6.27495 15.1425L9.3687 16.9312L10.2687 15.3675L7.17495 13.59C8.00745 12.285 8.99745 11.0475 10.1224 9.9225C11.2699 8.78625 12.5187 7.785 13.8462 6.94125L15.6237 10.0125L17.1874 9.1125L15.4099 6.04125C18.1999 4.57875 21.2824 3.7575 24.4999 3.6225V7.2H26.2999V3.6225C29.5174 3.7575 32.5999 4.59 35.3899 6.04125L33.6237 9.1125L35.1874 10.0125L36.9649 6.94125C38.2924 7.785 39.5412 8.78625 40.6887 9.9225C41.8137 11.0475 42.7924 12.2737 43.6362 13.59L40.5537 15.3675L41.4537 16.9312L44.5474 15.1425C46.0212 17.9438 46.8649 21.06 46.9999 24.3H43.3999V26.1H46.9774C46.8312 29.6325 45.8412 33.0075 44.1087 36H48.1699C49.7224 32.7262 50.5999 29.07 50.5999 25.2C50.5999 11.2838 39.3162 0 25.3999 0Z" fill="#2E7D32"/>
</g>
</g>
</svg>
